<svg width="20" height="20" viewBox="0 0 20 20" fill="none" xmlns="http://www.w3.org/2000/svg">
<path d="M2.5 0C1.83696 0 1.20107 0.263392 0.732233 0.732233C0.263392 1.20107 0 1.83696 0 2.5V17.5C0 18.163 0.263392 18.7989 0.732233 19.2678C1.20107 19.7366 1.83696 20 2.5 20H17.5C18.163 20 18.7989 19.7366 19.2678 19.2678C19.7366 18.7989 20 18.163 20 17.5V2.5C20 1.83696 19.7366 1.20107 19.2678 0.732233C18.7989 0.263392 18.163 0 17.5 0H2.5ZM10.625 5.625V9.375H14.375C14.5408 9.375 14.6997 9.44085 14.8169 9.55806C14.9342 9.67527 15 9.83424 15 10C15 10.1658 14.9342 10.3247 14.8169 10.4419C14.6997 10.5592 14.5408 10.625 14.375 10.625H10.625V14.375C10.625 14.5408 10.5592 14.6997 10.4419 14.8169C10.3247 14.9342 10.1658 15 10 15C9.83424 15 9.67527 14.9342 9.55806 14.8169C9.44085 14.6997 9.375 14.5408 9.375 14.375V10.625H5.625C5.45924 10.625 5.30027 10.5592 5.18306 10.4419C5.06585 10.3247 5 10.1658 5 10C5 9.83424 5.06585 9.67527 5.18306 9.55806C5.30027 9.44085 5.45924 9.375 5.625 9.375H9.375V5.625C9.375 5.45924 9.44085 5.30027 9.55806 5.18306C9.67527 5.06585 9.83424 5 10 5C10.1658 5 10.3247 5.06585 10.4419 5.18306C10.5592 5.30027 10.625 5.45924 10.625 5.625Z" fill="#B3B3B3"/>
</svg>
