<svg width="19" height="4" viewBox="0 0 19 4" fill="none" xmlns="http://www.w3.org/2000/svg">
<path d="M3.01953 2C3.01953 2.82861 2.34814 3.5 1.51953 3.5C0.690918 3.5 0.0195312 2.82861 0.0195312 2C0.0195312 1.17139 0.690918 0.5 1.51953 0.5C1.94727 0.5 2.33301 0.678711 2.60645 0.96582C2.8623 1.23486 3.01953 1.59912 3.01953 2Z" fill="white"/>
<path d="M10.5195 2C10.5195 2.82861 9.84814 3.5 9.01953 3.5C8.19092 3.5 7.51953 2.82861 7.51953 2C7.51953 1.17139 8.19092 0.5 9.01953 0.5C9.84814 0.5 10.5195 1.17139 10.5195 2Z" fill="white"/>
<path d="M16.5195 3.5C17.3481 3.5 18.0195 2.82861 18.0195 2C18.0195 1.17139 17.3481 0.5 16.5195 0.5C15.6909 0.5 15.0195 1.17139 15.0195 2C15.0195 2.82861 15.6909 3.5 16.5195 3.5Z" fill="white"/>
</svg>
