<svg width="20" height="18" viewBox="0 0 20 18" fill="none" xmlns="http://www.w3.org/2000/svg">
<path fill-rule="evenodd" clip-rule="evenodd" d="M11.2598 13.6483L12.3567 12.6136C12.7438 12.2496 12.7438 11.662 12.3567 11.298C11.973 10.934 11.3448 10.934 10.9577 11.298L7.5382 14.5137L10.9577 17.7294C11.3448 18.0902 11.973 18.0902 12.3567 17.7294C12.7438 17.3653 12.7438 16.7745 12.3567 16.4105L11.2598 15.3791H15.2801C17.8845 15.3791 20 13.3864 20 10.9371V4.43872C20 1.98944 17.8845 0 15.2801 0H4.72331C2.1155 0 0 1.98944 0 4.43872V10.9371C0 13.3864 2.1155 15.3791 4.72331 15.3791H5.66055V13.6483H4.72331C3.13078 13.6483 1.84051 12.4316 1.84051 10.9371V4.43872C1.84051 2.94424 3.13078 1.72764 4.72331 1.72764H15.2801C16.8693 1.72764 18.1632 2.94424 18.1632 4.43872V10.9371C18.1632 12.4316 16.8693 13.6483 15.2801 13.6483H11.2598Z" fill="white"/>
</svg>
