<svg width="22" height="22" viewBox="0 0 22 22" fill="none" xmlns="http://www.w3.org/2000/svg">
<path d="M14.356 9.27997C14.356 11.903 12.196 14.03 9.53298 14.03C6.86898 14.03 4.70898 11.903 4.70898 9.27997C4.70898 6.65697 6.86898 4.52997 9.53298 4.52997C12.197 4.52997 14.356 6.65697 14.356 9.27997Z" fill="white"/>
<path d="M0.125977 9.28C0.125977 4.14 4.35198 0 9.53298 0C14.713 0 18.94 4.14 18.94 9.28C18.942 11.4007 18.2079 13.4563 16.863 15.096L21.207 19.44C21.3891 19.6286 21.4899 19.8812 21.4877 20.1434C21.4854 20.4056 21.3802 20.6564 21.1948 20.8418C21.0094 21.0272 20.7586 21.1324 20.4964 21.1347C20.2342 21.137 19.9816 21.0362 19.793 20.854L15.44 16.501C13.7615 17.8374 11.6785 18.5631 9.53298 18.559C4.35298 18.559 0.125977 14.42 0.125977 9.28ZM9.53298 2C5.42798 2 2.12598 5.274 2.12598 9.28C2.12598 13.286 5.42798 16.559 9.53298 16.559C13.638 16.559 16.94 13.286 16.94 9.279C16.94 5.274 13.638 2 9.53298 2Z" fill="white"/>
</svg>
