<svg width="58" height="55" viewBox="0 0 58 55" fill="none" xmlns="http://www.w3.org/2000/svg">
<path fill-rule="evenodd" clip-rule="evenodd" d="M0.230834 24.0088C-0.0936164 26.1412 -0.0745311 28.3189 0.278547 30.4694C0.812935 33.7632 2.88384 36.6397 5.9184 38.3184C14.2301 42.9189 33.9164 53.8168 33.9164 53.8168C34.7848 54.2887 35.8445 54.2887 36.7128 53.8168C37.5717 53.345 38.1062 52.4738 38.1062 51.5301V2.64857C38.1062 1.70487 37.5717 0.824625 36.7128 0.352777C35.8445 -0.11907 34.7848 -0.119106 33.9164 0.361816C33.9164 0.361816 14.2301 11.2507 5.9184 15.8512C2.88384 17.5299 0.812935 20.4154 0.278547 23.7093L0.230834 24.0088ZM42.6867 7.40337C42.6867 7.30356 42.7344 7.20368 42.8298 7.14923C42.9157 7.08571 43.0296 7.0766 43.125 7.1129C51.6562 10.1255 57.7253 17.9381 57.7253 27.0847C57.7253 36.2404 51.6562 44.0441 43.125 47.0658C43.0296 47.102 42.9157 47.0839 42.8298 47.0294C42.7439 46.9659 42.6867 46.8751 42.6867 46.7753C42.6867 45.6682 42.6867 42.8282 42.6867 41.8392C42.6867 41.6305 42.8106 41.4308 43.011 41.3401C48.4408 38.6814 52.1622 33.2913 52.1622 27.0847C52.1622 20.8781 48.4408 15.4972 43.011 12.8386C42.8106 12.7387 42.6867 12.5482 42.6867 12.3304C42.6867 11.3414 42.6867 8.50133 42.6867 7.40337ZM5.77526 24.544V24.5259C6.052 22.8109 7.14031 21.3047 8.71485 20.4336L32.5327 7.24901C32.5327 7.24901 32.5327 40.9135 32.5327 46.2218C32.5327 46.367 32.4568 46.5031 32.3232 46.5757C32.1896 46.6483 32.0371 46.6483 31.9035 46.5757C25.529 43.0459 14.4309 36.9119 8.71485 33.7451C7.14031 32.874 6.052 31.3677 5.77526 29.6527C5.49853 27.9559 5.49853 26.2228 5.77526 24.5259V24.544ZM42.6867 17.6297C42.6867 17.5027 42.763 17.3846 42.8775 17.3302C43.0016 17.2757 43.1446 17.2848 43.2495 17.3665C46.2937 19.6169 48.2594 23.1375 48.2594 27.0847C48.2594 31.041 46.2937 34.5527 43.2495 36.8121C43.1446 36.8847 43.0016 36.8937 42.8775 36.8393C42.763 36.7848 42.6867 36.6669 42.6867 36.549C42.6867 33.5001 42.6867 20.6786 42.6867 17.6297ZM0.230834 23.9996L0.269601 23.7273C0.260058 23.8181 0.240376 23.9088 0.230834 23.9996L0.116769 24.6984L0.230834 24.0088V23.9996Z" fill="white"/>
<rect x="41" y="6" width="17" height="43" fill="#181818"/>
<circle cx="39" cy="27" r="18" fill="#181818"/>
<path d="M51 35L35 19" stroke="white" stroke-width="6" stroke-linecap="round" stroke-linejoin="round"/>
<path d="M35 35L51 19" stroke="white" stroke-width="6" stroke-linecap="round" stroke-linejoin="round"/>
</svg>
