<svg width="20" height="21" viewBox="0 0 20 21" fill="none" xmlns="http://www.w3.org/2000/svg">
<path d="M10.5 2.15638C10.348 2.07234 10.1755 2.02809 10 2.02809C9.82446 2.02809 9.65202 2.07234 9.5 2.15638L2 6.30251V18.198H6.5V12.4528C6.5 12.1988 6.60536 11.9553 6.79289 11.7757C6.98043 11.5961 7.23478 11.4952 7.5 11.4952H12.5C12.7652 11.4952 13.0196 11.5961 13.2071 11.7757C13.3946 11.9553 13.5 12.1988 13.5 12.4528V18.198H18V6.30251L10.5 2.15638ZM8.5 0.497924C8.95606 0.2458 9.47339 0.113068 10 0.113068C10.5266 0.113068 11.0439 0.2458 11.5 0.497924L19 4.64406C19.304 4.81214 19.5565 5.05388 19.732 5.345C19.9076 5.63612 20 5.96636 20 6.30251V19.1555C20 19.4095 19.8946 19.653 19.7071 19.8326C19.5196 20.0122 19.2652 20.1131 19 20.1131H12.5C12.2348 20.1131 11.9804 20.0122 11.7929 19.8326C11.6054 19.653 11.5 19.4095 11.5 19.1555V13.4103H8.5V19.1555C8.5 19.4095 8.39464 19.653 8.20711 19.8326C8.01957 20.0122 7.76522 20.1131 7.5 20.1131H1C0.734784 20.1131 0.48043 20.0122 0.292893 19.8326C0.105357 19.653 0 19.4095 0 19.1555V6.30251C8.91844e-06 5.96636 0.0924258 5.63612 0.267962 5.345C0.443498 5.05388 0.695969 4.81214 1 4.64406L8.5 0.497924Z" fill="white"/>
</svg>
