<svg width="17" height="17" viewBox="0 0 17 17" fill="none" xmlns="http://www.w3.org/2000/svg">
<path fill-rule="evenodd" clip-rule="evenodd" d="M13.3729 7.1431V0.588046C13.3729 0.263603 13.6252 0 13.9722 0H16.4323C16.7477 0 17 0.263603 17 0.588046V16.4123C17 16.7367 16.7477 17 16.4323 17H13.9722C13.6252 17 13.3729 16.7367 13.3729 16.4123V9.8572L1.38776 16.7777C1.1039 16.9407 0.756957 16.9407 0.473098 16.7777C0.189239 16.6147 0 16.3136 0 15.9876C0 12.5546 0 4.44573 0 1.01244C0 0.686733 0.189239 0.385629 0.473098 0.222619C0.756957 0.0596088 1.1039 0.0595854 1.38776 0.22228L13.3729 7.1431Z" fill="white"/>
</svg>
