<svg width="22" height="22" viewBox="0 0 22 22" fill="none" xmlns="http://www.w3.org/2000/svg">
<path d="M0.125977 9.55801C0.125977 4.41802 4.35198 0.278015 9.53298 0.278015C14.713 0.278015 18.94 4.41802 18.94 9.55801C18.942 11.6787 18.2079 13.7343 16.863 15.374L21.207 19.718C21.3891 19.9066 21.4899 20.1592 21.4877 20.4214C21.4854 20.6836 21.3802 20.9344 21.1948 21.1198C21.0094 21.3052 20.7586 21.4104 20.4964 21.4127C20.2342 21.415 19.9816 21.3142 19.793 21.132L15.44 16.779C13.7615 18.1154 11.6785 18.8412 9.53298 18.837C4.35298 18.837 0.125977 14.698 0.125977 9.55801ZM9.53298 2.27802C5.42798 2.27802 2.12598 5.55201 2.12598 9.55801C2.12598 13.564 5.42798 16.837 9.53298 16.837C13.638 16.837 16.94 13.564 16.94 9.55702C16.94 5.55202 13.638 2.27802 9.53298 2.27802Z" fill="white"/>
</svg>
