<svg width="20" height="20" viewBox="0 0 20 20" fill="none" xmlns="http://www.w3.org/2000/svg">
<path d="M11.5 0.384857C11.0439 0.132733 10.5266 0 10 0C9.47339 0 8.95606 0.132733 8.5 0.384857L1 4.53099C0.695969 4.69907 0.443498 4.94082 0.267962 5.23194C0.0924258 5.52305 8.91844e-06 5.85329 0 6.18945V19.0425C0 19.2964 0.105357 19.54 0.292893 19.7195C0.48043 19.8991 0.734784 20 1 20H7C7.26522 20 7.51957 19.8991 7.70711 19.7195C7.89464 19.54 8 19.2964 8 19.0425V13.2972H12V19.0425C12 19.2964 12.1054 19.54 12.2929 19.7195C12.4804 19.8991 12.7348 20 13 20H19C19.2652 20 19.5196 19.8991 19.7071 19.7195C19.8946 19.54 20 19.2964 20 19.0425V6.18945C20 5.85329 19.9076 5.52305 19.732 5.23194C19.5565 4.94082 19.304 4.69907 19 4.53099L11.5 0.384857Z" fill="white"/>
</svg>
